<?xml version="1.0" encoding="UTF-8" standalone="no"?>
<svg
   xmlns:dc="http://purl.org/dc/elements/1.1/"
   xmlns:cc="http://creativecommons.org/ns#"
   xmlns:rdf="http://www.w3.org/1999/02/22-rdf-syntax-ns#"
   xmlns:svg="http://www.w3.org/2000/svg"
   xmlns="http://www.w3.org/2000/svg"
   xmlns:sodipodi="http://sodipodi.sourceforge.net/DTD/sodipodi-0.dtd"
   xmlns:inkscape="http://www.inkscape.org/namespaces/inkscape"
   width="262"
   height="27"
   viewBox="0 0 262 27"
   fill="none"
   id="svg2"
   version="1.1"
   inkscape:version="0.91 r13725"
   sodipodi:docname="edj-with-label-white.svg">
  <metadata
     id="metadata52">
    <rdf:RDF>
      <cc:Work
         rdf:about="">
        <dc:format>image/svg+xml</dc:format>
        <dc:type
           rdf:resource="http://purl.org/dc/dcmitype/StillImage" />
        <dc:title></dc:title>
      </cc:Work>
    </rdf:RDF>
  </metadata>
  <defs
     id="defs50" />
  <sodipodi:namedview
     pagecolor="#ffffff"
     bordercolor="#666666"
     borderopacity="1"
     objecttolerance="10"
     gridtolerance="10"
     guidetolerance="10"
     inkscape:pageopacity="0"
     inkscape:pageshadow="2"
     inkscape:window-width="1920"
     inkscape:window-height="1017"
     id="namedview48"
     showgrid="false"
     inkscape:zoom="1.0992366"
     inkscape:cx="270.05159"
     inkscape:cy="13.5"
     inkscape:window-x="-8"
     inkscape:window-y="-8"
     inkscape:window-maximized="1"
     inkscape:current-layer="svg2" />
  <path
     opacity="0.5"
     d="M13.8884 23.5189L5.92672 18.8078C5.32203 18.4499 5.39797 17.8243 6.0964 17.4112L13.7183 12.9009C14.4172 12.4873 15.4738 12.4426 16.0784 12.8005L24.0402 17.5116C24.6448 17.8695 24.5689 18.495 23.8705 18.9082L16.2486 23.4184C15.5497 23.8316 14.4931 23.8773 13.8884 23.5189Z"
     fill="#0B0244"
     id="path4" />
  <path
     d="M29.9534 8.88798C29.9914 8.49596 29.7814 8.1169 29.3122 7.83921L16.7169 0.384427C15.7597 -0.181996 14.0877 -0.110894 12.9823 0.542967L0.922343 7.67875C0.348125 8.01841 0.040625 8.44743 0.0110937 8.863H0.0078125V11.4093H0.0129684C-0.0146878 11.7936 0.194375 12.1621 0.654218 12.4345L13.2509 19.8898C14.082 20.3817 15.4508 20.3928 16.5209 19.9594L16.5303 19.9556C16.5645 19.9417 16.5978 19.9272 16.6311 19.9128L16.6498 19.9042C16.6803 19.8907 16.7103 19.8763 16.7403 19.8619L16.7656 19.8499L16.8509 19.8062L16.8777 19.7922C16.9142 19.7725 16.9498 19.7524 16.9855 19.7312L29.0455 12.594C29.683 12.2169 29.9909 11.7292 29.9548 11.2733L29.9534 8.88798Z"
     fill="#1CADE4"
     id="path6" />
  <path
     d="M29.9525 15.6139C29.9904 15.2223 29.7804 14.8452 29.3112 14.5651L16.7159 7.11032C15.7587 6.54389 14.0867 6.615 12.9814 7.26886L0.921367 14.4061C0.347148 14.7462 0.0396484 15.1748 0.0101172 15.5908H0.00683594V18.1371H0.0119919C-0.0156644 18.5214 0.193398 18.8904 0.653242 19.1628L13.25 26.6157C14.0811 27.1071 15.4498 27.1182 16.52 26.6853L16.5293 26.6815C16.5636 26.6675 16.5968 26.6531 16.6301 26.6382L16.6489 26.6301C16.6793 26.6166 16.7093 26.6022 16.7393 26.5878L16.7646 26.5758C16.7937 26.5614 16.8218 26.5465 16.85 26.5316L16.8767 26.5181C16.9132 26.4984 16.9489 26.4778 16.9845 26.4571L29.0445 19.3213C29.682 18.9442 29.99 18.4566 29.9539 18.0006L29.9525 15.6139Z"
     fill="#FFC62E"
     id="path8" />
  <path
     d="M12.985 7.26984L2.4541 13.5L13.2513 19.8897C14.0824 20.3817 15.4511 20.3927 16.5213 19.9594L16.5307 19.9555C16.5649 19.9416 16.5982 19.9272 16.6314 19.9128L16.6502 19.9041C16.6807 19.8907 16.7107 19.8762 16.7407 19.8618L16.766 19.8498L16.8513 19.8061L16.878 19.7922C16.9146 19.7725 16.9502 19.7523 16.9858 19.7312L27.5163 13.5L16.7172 7.11034C15.76 6.54488 14.088 6.61598 12.985 7.26984Z"
     fill="#079557"
     id="path10" />
  <path
     d="M53.722 7.27H46V19.87H53.866V17.422H48.718V14.542H53.398V12.184H48.718V9.628H53.722V7.27Z"
     fill="#022B55"
     id="path12"
     style="fill:#f2f2f2" />
  <path
     d="M58.9828 7.27H56.3008V19.87H58.9828V14.812C59.5408 14.812 60.4768 14.812 60.9628 14.686L64.1308 19.87H67.1728V19.474L63.3208 13.642C64.0948 12.868 64.5268 11.734 64.9048 10.294C65.1748 9.34 65.7148 9.034 66.7228 9.124V7.288C63.9508 6.712 62.8528 7.936 62.4208 9.502C62.0788 10.924 61.8268 11.878 61.1608 12.238C60.6568 12.49 59.7568 12.472 58.9828 12.472V7.27Z"
     fill="#022B55"
     id="path14"
     style="fill:#f2f2f2" />
  <path
     d="M80.6504 13.57C80.6504 9.34 77.5364 7.072 74.2424 7.072C70.8944 7.072 67.7804 9.322 67.7804 13.57C67.7804 17.818 70.8224 20.086 74.1884 20.086C78.0044 20.086 80.6504 17.404 80.6504 13.57ZM70.4984 13.57C70.4984 10.906 72.2624 9.556 74.2424 9.556C76.2044 9.556 77.9684 10.888 77.9684 13.57C77.9684 16.324 76.1864 17.62 74.2244 17.62C72.2084 17.62 70.4984 16.324 70.4984 13.57Z"
     fill="#022B55"
     id="path16"
     style="fill:#f2f2f2" />
  <path
     d="M82.1593 16.144C82.1593 18.898 84.7693 20.14 87.2893 20.14C89.7733 20.086 92.3473 19.168 92.3473 16.198C92.3473 13.246 90.0613 12.652 87.3973 12.418C86.0833 12.274 84.9853 12.022 84.9853 10.906C84.9853 9.934 86.0473 9.358 87.1273 9.358C88.2073 9.358 89.2693 9.79 89.4133 10.816H91.9333C91.9333 7.99 89.4853 7 87.1273 7C84.6253 7 82.3393 8.17 82.3393 10.96C82.3393 13.57 84.6433 14.344 86.9293 14.542C88.1353 14.632 89.6833 14.758 89.6833 16.198C89.6833 17.512 88.3873 17.782 87.2713 17.782C86.0473 17.782 84.7873 17.296 84.7333 16.144H82.1593Z"
     fill="#022B55"
     id="path18"
     style="fill:#f2f2f2" />
  <path
     d="M98.3672 17.728V9.358H100.005V7.27H94.0292V9.358H95.6672V17.728H93.8852V19.87H100.149V17.728H98.3672Z"
     fill="#022B55"
     id="path20"
     style="fill:#f2f2f2" />
  <path
     d="M101.724 16.144C101.724 18.898 104.334 20.14 106.854 20.14C109.338 20.086 111.912 19.168 111.912 16.198C111.912 13.246 109.626 12.652 106.962 12.418C105.648 12.274 104.55 12.022 104.55 10.906C104.55 9.934 105.612 9.358 106.692 9.358C107.772 9.358 108.834 9.79 108.978 10.816H111.498C111.498 7.99 109.05 7 106.692 7C104.19 7 101.904 8.17 101.904 10.96C101.904 13.57 104.208 14.344 106.494 14.542C107.7 14.632 109.248 14.758 109.248 16.198C109.248 17.512 107.952 17.782 106.836 17.782C105.612 17.782 104.352 17.296 104.298 16.144H101.724Z"
     fill="#022B55"
     id="path22"
     style="fill:#f2f2f2" />
  <path
     d="M116.242 9.61V19.87H118.852V9.61H122.2V7.27H112.876V9.61H116.242Z"
     fill="#022B55"
     id="path24"
     style="fill:#f2f2f2" />
  <path
     d="M131.699 7.27H123.977V19.87H131.843V17.422H126.695V14.542H131.375V12.184H126.695V9.628H131.699V7.27Z"
     fill="#022B55"
     id="path26"
     style="fill:#f2f2f2" />
  <path
     d="M140.325 13.228L135.267 7.234H134.277V19.87H136.977V13.048L140.145 17.008H140.487L143.655 13.048V19.87H146.355V7.234H145.383L140.325 13.228Z"
     fill="#022B55"
     id="path28"
     style="fill:#f2f2f2" />
  <path
     d="M153.702 7.288V19.87H158.382C162.45 19.87 164.61 16.756 164.556 13.534C164.556 10.33 162.396 7.288 158.382 7.288H153.702ZM156.384 17.44V9.718H158.346C160.632 9.718 161.874 11.536 161.874 13.552C161.874 15.568 160.668 17.44 158.346 17.44H156.384Z"
     fill="#022B55"
     id="path30"
     style="fill:#f2f2f2" />
  <path
     d="M173.88 17.782L174.87 19.87H177.66V19.51L171.9 7.162H170.658L164.862 19.51V19.87H167.67L168.642 17.782H173.88ZM171.27 11.356L173.016 15.514H169.524L171.27 11.356Z"
     fill="#022B55"
     id="path32"
     style="fill:#f2f2f2" />
  <path
     d="M180.332 9.61V19.87H182.942V9.61H186.29V7.27H176.966V9.61H180.332Z"
     fill="#022B55"
     id="path34"
     style="fill:#f2f2f2" />
  <path
     d="M194.587 17.782L195.577 19.87H198.367V19.51L192.607 7.162H191.365L185.569 19.51V19.87H188.377L189.349 17.782H194.587ZM191.977 11.356L193.723 15.514H190.231L191.977 11.356Z"
     fill="#022B55"
     id="path36"
     style="fill:#f2f2f2" />
  <path
     d="M211.663 7.27H206.713V9.592H208.963V15.64C208.963 16.954 208.117 17.656 206.839 17.656C205.561 17.656 204.643 16.99 204.643 15.64V14.164H202.141V15.694C202.141 18.43 204.229 20.05 206.839 20.05C209.449 20.05 211.663 18.43 211.663 15.694V7.27Z"
     fill="#022B55"
     id="path38"
     style="fill:#f2f2f2" />
  <path
     d="M221.763 17.782L222.753 19.87H225.543V19.51L219.783 7.162H218.541L212.745 19.51V19.87H215.553L216.525 17.782H221.763ZM219.153 11.356L220.899 15.514H217.407L219.153 11.356Z"
     fill="#022B55"
     id="path40"
     style="fill:#f2f2f2" />
  <path
     d="M236.238 11.014C236.238 8.656 234.582 7.288 232.278 7.288H226.932V19.87H232.782C235.302 19.87 236.778 18.358 236.778 16.144C236.778 14.848 236.148 13.822 234.978 13.336C235.77 12.85 236.238 11.932 236.238 11.014ZM232.08 9.592C233.016 9.592 233.61 10.186 233.592 11.104C233.574 11.95 232.998 12.454 232.08 12.454H229.614V9.592H232.08ZM232.476 14.65C232.89 14.65 233.25 14.686 233.556 14.902C233.934 15.172 234.132 15.64 234.114 16.144C234.06 16.99 233.52 17.53 232.602 17.53H229.614V14.65H232.476Z"
     fill="#022B55"
     id="path42"
     style="fill:#f2f2f2" />
  <path
     d="M246.302 17.782L247.292 19.87H250.082V19.51L244.322 7.162H243.08L237.284 19.51V19.87H240.092L241.064 17.782H246.302ZM243.692 11.356L245.438 15.514H241.946L243.692 11.356Z"
     fill="#022B55"
     id="path44"
     style="fill:#f2f2f2" />
  <path
     d="M259.049 15.28C260.489 14.578 261.299 13.174 261.299 11.572C261.299 9.34 259.733 7.252 256.853 7.252C255.053 7.234 253.271 7.252 251.471 7.252V19.852H254.171V15.694H256.421L259.013 19.852H261.893V19.474L259.049 15.28ZM254.135 13.48V9.61H256.835C257.987 9.61 258.689 10.456 258.689 11.518C258.707 12.598 257.969 13.48 256.835 13.48H254.135Z"
     fill="#022B55"
     id="path46"
     style="fill:#f2f2f2" />
</svg>
