<svg width="44" height="38" viewBox="0 0 44 38" fill="none" xmlns="http://www.w3.org/2000/svg">
<path d="M43.2005 12.5204C43.2555 11.9707 42.9532 11.4363 42.2844 11.0455L24.106 0.537816C22.7257 -0.25919 20.3134 -0.158419 18.7193 0.760733L1.31347 10.8073C0.495093 11.2989 0.0492589 11.8883 0.00345403 12.4715V16.0565C-0.0362436 16.597 0.266069 17.1161 0.919552 17.5009L19.1072 27.9902C20.3042 28.6834 22.2952 28.7048 23.822 28.094L23.9686 28.033C23.9767 28.0319 23.9849 28.0319 23.993 28.033L24.1243 27.9719H24.161L24.2831 27.9108L24.3228 27.8895L24.4785 27.8039L41.8844 17.7605C42.8005 17.2291 43.2463 16.539 43.1944 15.9008L43.2005 12.5204Z" fill="#1CADE4"/>
<path d="M43.2005 21.9867C43.2555 21.4371 42.9532 20.9027 42.2844 20.5118L24.106 10.0072C22.7257 9.2102 20.3134 9.31097 18.7193 10.2301L1.31347 20.2736C0.495093 20.7653 0.0492589 21.3577 0.00345403 21.9409V25.5259C-0.0362436 26.0664 0.266069 26.5855 0.919552 26.9703L19.0919 37.4596C20.3042 38.1528 22.2952 38.1711 23.822 37.5604L23.9686 37.5024H23.993L24.1243 37.4413L24.161 37.426L24.2831 37.3619L24.3228 37.3436L24.4785 37.2581L41.8844 27.2146C42.8005 26.6832 43.2463 25.9931 43.1944 25.3549L43.2005 21.9867Z" fill="#FFC62E"/>
<path d="M18.7194 10.2301L3.53046 19.0002L19.1041 27.9902C20.3042 28.6834 22.2952 28.7048 23.822 28.094L23.9686 28.033H23.993L24.1243 27.9749L24.161 27.9566L24.2831 27.8955L24.3228 27.8742L24.4786 27.7887L39.6644 19.0216L24.0907 10.0286C22.7105 9.23156 20.2981 9.33233 18.7041 10.2515" fill="#079557"/>
</svg>
