<svg width="115" height="38" viewBox="0 0 115 38" fill="none" xmlns="http://www.w3.org/2000/svg">
<path d="M59.3284 8.43762H55.0709V15.3847H59.4078V14.035H56.5694V12.4471H59.1498V11.147H56.5694V9.73772H59.3284V8.43762Z" fill="#383535"/>
<path d="M62.229 8.43762H60.7503V15.3847H62.229V12.5959C62.5366 12.5959 63.0527 12.5959 63.3207 12.5265L65.0674 15.3847H66.7446V15.1664L64.6208 11.9509C65.0475 11.5241 65.2857 10.8989 65.4941 10.1049C65.643 9.57893 65.9407 9.41021 66.4965 9.45984V8.44755C64.9681 8.12997 64.3627 8.80483 64.1245 9.66825C63.936 10.4523 63.797 10.9783 63.4298 11.1768C63.152 11.3157 62.6557 11.3058 62.229 11.3058V8.43762Z" fill="#383535"/>
<path d="M74.1756 11.9112C74.1756 9.57893 72.4586 8.32845 70.6425 8.32845C68.7965 8.32845 67.0796 9.569 67.0796 11.9112C67.0796 14.2533 68.7568 15.5038 70.6127 15.5038C72.7167 15.5038 74.1756 14.0251 74.1756 11.9112ZM68.5782 11.9112C68.5782 10.4424 69.5508 9.69802 70.6425 9.69802C71.7242 9.69802 72.6968 10.4324 72.6968 11.9112C72.6968 13.4296 71.7143 14.1442 70.6325 14.1442C69.521 14.1442 68.5782 13.4296 68.5782 11.9112Z" fill="#383535"/>
<path d="M75.0075 13.3304C75.0075 14.8488 76.4465 15.5336 77.836 15.5336C79.2055 15.5038 80.6247 14.9976 80.6247 13.3601C80.6247 11.7325 79.3643 11.405 77.8955 11.276C77.171 11.1966 76.5656 11.0577 76.5656 10.4424C76.5656 9.90643 77.1512 9.58885 77.7466 9.58885C78.3421 9.58885 78.9276 9.82704 79.007 10.3927H80.3965C80.3965 8.8346 79.0467 8.28876 77.7466 8.28876C76.3671 8.28876 75.1067 8.93384 75.1067 10.4721C75.1067 11.9112 76.3771 12.3379 77.6375 12.4471C78.3024 12.4967 79.1559 12.5662 79.1559 13.3601C79.1559 14.0846 78.4413 14.2335 77.826 14.2335C77.1512 14.2335 76.4565 13.9655 76.4267 13.3304H75.0075Z" fill="#383535"/>
<path d="M83.9438 14.2037V9.58885H84.8469V8.43762H81.552V9.58885H82.4551V14.2037H81.4726V15.3847H84.9263V14.2037H83.9438Z" fill="#383535"/>
<path d="M85.7945 13.3304C85.7945 14.8488 87.2335 15.5336 88.6229 15.5336C89.9925 15.5038 91.4117 14.9976 91.4117 13.3601C91.4117 11.7325 90.1513 11.405 88.6825 11.276C87.958 11.1966 87.3526 11.0577 87.3526 10.4424C87.3526 9.90643 87.9381 9.58885 88.5336 9.58885C89.1291 9.58885 89.7146 9.82704 89.794 10.3927H91.1834C91.1834 8.8346 89.8337 8.28876 88.5336 8.28876C87.1541 8.28876 85.8937 8.93384 85.8937 10.4721C85.8937 11.9112 87.164 12.3379 88.4244 12.4471C89.0894 12.4967 89.9429 12.5662 89.9429 13.3601C89.9429 14.0846 89.2283 14.2335 88.613 14.2335C87.9381 14.2335 87.2434 13.9655 87.2137 13.3304H85.7945Z" fill="#383535"/>
<path d="M93.799 9.72779V15.3847H95.2381V9.72779H97.084V8.43762H91.9432V9.72779H93.799Z" fill="#383535"/>
<path d="M102.321 8.43762H98.0637V15.3847H102.401V14.035H99.5622V12.4471H102.143V11.147H99.5622V9.73772H102.321V8.43762Z" fill="#383535"/>
<path d="M107.078 11.7226L104.289 8.41777H103.743V15.3847H105.232V11.6234L106.978 13.8067H107.167L108.914 11.6234V15.3847H110.402V8.41777H109.866L107.078 11.7226Z" fill="#383535"/>
<path d="M55.0808 20.3568V27.294H57.6611C59.904 27.294 61.095 25.5771 61.0652 23.8006C61.0652 22.034 59.8743 20.3568 57.6611 20.3568H55.0808ZM56.5595 25.9542V21.6966H57.6413C58.9017 21.6966 59.5865 22.699 59.5865 23.8105C59.5865 24.922 58.9215 25.9542 57.6413 25.9542H56.5595Z" fill="#383535"/>
<path d="M66.2061 26.1427L66.752 27.294H68.2902V27.0955L65.1144 20.2874H64.4296L61.234 27.0955V27.294H62.7822L63.3181 26.1427H66.2061ZM64.7671 22.5997L65.7297 24.8923H63.8044L64.7671 22.5997Z" fill="#383535"/>
<path d="M69.7634 21.6371V27.294H71.2024V21.6371H73.0484V20.3469H67.9075V21.6371H69.7634Z" fill="#383535"/>
<path d="M77.623 26.1427L78.1689 27.294H79.7072V27.0955L76.5314 20.2874H75.8466L72.6509 27.0955V27.294H74.1991L74.735 26.1427H77.623ZM76.184 22.5997L77.1467 24.8923H75.2213L76.184 22.5997Z" fill="#383535"/>
<path d="M87.038 20.3469H84.3088V21.6271H85.5494V24.9617C85.5494 25.6862 85.0829 26.0733 84.3783 26.0733C83.6737 26.0733 83.1675 25.7061 83.1675 24.9617V24.1479H81.788V24.9915C81.788 26.5 82.9393 27.3932 84.3783 27.3932C85.8173 27.3932 87.038 26.5 87.038 24.9915V20.3469Z" fill="#383535"/>
<path d="M92.6066 26.1427L93.1524 27.294H94.6907V27.0955L91.5149 20.2874H90.8301L87.6344 27.0955V27.294H89.1826L89.7186 26.1427H92.6066ZM91.1675 22.5997L92.1302 24.8923H90.2049L91.1675 22.5997Z" fill="#383535"/>
<path d="M100.588 22.4112C100.588 21.1111 99.6747 20.3568 98.4043 20.3568H95.4568V27.294H98.6822C100.072 27.294 100.885 26.4603 100.885 25.2396C100.885 24.5251 100.538 23.9594 99.893 23.6914C100.33 23.4235 100.588 22.9173 100.588 22.4112ZM98.2952 21.6271C98.8112 21.6271 99.1387 21.9546 99.1288 22.4608C99.1189 22.9272 98.8013 23.2051 98.2952 23.2051H96.9355V21.6271H98.2952ZM98.5135 24.4159C98.7418 24.4159 98.9403 24.4357 99.109 24.5548C99.3174 24.7037 99.4266 24.9617 99.4166 25.2396C99.3869 25.7061 99.0891 26.0038 98.583 26.0038H96.9355V24.4159H98.5135Z" fill="#383535"/>
<path d="M106.136 26.1427L106.682 27.294H108.22V27.0955L105.045 20.2874H104.36L101.164 27.0955V27.294H102.712L103.248 26.1427H106.136ZM104.697 22.5997L105.66 24.8923H103.735L104.697 22.5997Z" fill="#383535"/>
<path d="M113.165 24.7633C113.959 24.3762 114.405 23.6021 114.405 22.7188C114.405 21.4882 113.542 20.337 111.954 20.337C110.961 20.327 109.979 20.337 108.987 20.337V27.284H110.475V24.9915H111.716L113.145 27.284H114.733V27.0756L113.165 24.7633ZM110.455 23.7708V21.6371H111.944C112.579 21.6371 112.966 22.1035 112.966 22.6891C112.976 23.2845 112.569 23.7708 111.944 23.7708H110.455Z" fill="#383535"/>
<path d="M43.2005 12.5204C43.2555 11.9707 42.9532 11.4363 42.2844 11.0455L24.106 0.537816C22.7257 -0.25919 20.3134 -0.158419 18.7193 0.760733L1.31347 10.8073C0.495093 11.2989 0.0492589 11.8883 0.00345403 12.4715V16.0565C-0.0362436 16.597 0.266069 17.1161 0.919552 17.5009L19.1072 27.9902C20.3042 28.6834 22.2952 28.7048 23.822 28.094L23.9686 28.033C23.9767 28.0319 23.9849 28.0319 23.993 28.033L24.1243 27.9719H24.161L24.2831 27.9108L24.3228 27.8895L24.4785 27.8039L41.8844 17.7605C42.8005 17.2291 43.2463 16.539 43.1944 15.9008L43.2005 12.5204Z" fill="#1CADE4"/>
<path d="M43.2005 21.9867C43.2555 21.4371 42.9532 20.9027 42.2844 20.5118L24.106 10.0072C22.7257 9.2102 20.3134 9.31097 18.7193 10.2301L1.31347 20.2736C0.495093 20.7653 0.0492589 21.3577 0.00345403 21.9409V25.5259C-0.0362436 26.0664 0.266069 26.5855 0.919552 26.9703L19.0919 37.4596C20.3042 38.1528 22.2952 38.1711 23.822 37.5604L23.9686 37.5024H23.993L24.1243 37.4413L24.161 37.426L24.2831 37.3619L24.3228 37.3436L24.4785 37.2581L41.8844 27.2146C42.8005 26.6832 43.2463 25.9931 43.1944 25.3549L43.2005 21.9867Z" fill="#FFC62E"/>
<path d="M18.7194 10.2301L3.53046 19.0002L19.1041 27.9902C20.3042 28.6834 22.2952 28.7048 23.822 28.094L23.9686 28.033H23.993L24.1243 27.9749L24.161 27.9566L24.2831 27.8955L24.3228 27.8742L24.4786 27.7887L39.6644 19.0216L24.0907 10.0286C22.7105 9.23156 20.2981 9.33233 18.7041 10.2515" fill="#079557"/>
</svg>
